<svg xmlns="http://www.w3.org/2000/svg" width="1920.103" height="1082.861" viewBox="0 0 1920.103 1082.861">
  <g id="Group_116" data-name="Group 116" transform="translate(0.103)">
    <g id="Rectangle_98" data-name="Rectangle 98" fill="#fff" stroke="#707070" stroke-width="1">
      <rect width="1920" height="1080" stroke="none"/>
      <rect x="0.5" y="0.5" width="1919" height="1079" fill="none"/>
    </g>
    <g id="_10747" data-name="10747" transform="translate(0 122.534)">
      <g id="Group_115" data-name="Group 115" transform="translate(-102.753 -71.637)">
        <g id="Group_114" data-name="Group 114">
          <path id="Path_204" data-name="Path 204" d="M1360.283,1200.8l1322.9-.526c51.352-185.3-71.293-472.3-284.883-582.45-169.859-87.6-213.305-366.335-353.738-497.158,0,0-572.61-.178-683.972.416Z" transform="translate(-1257.574 -171.529)" fill="#cbe4df"/>
          <g id="Group_113" data-name="Group 113" transform="translate(60.507 398.148)">
            <path id="Path_205" data-name="Path 205" d="M1307.664,1587.7s50.628-12.545,70.517,18.886,59.665,32.646,80.545,57.891,36.793,70.73-10.938,93.233-166.452-10.523-166.452-10.523l-22.693-146.442,49.021-13.052Z" transform="translate(-188.643 -1151.685)" fill="#3dbdab"/>
            <path id="Path_206" data-name="Path 206" d="M1425.5,1290.3s6.333-39.029,39.777-54.933c20.074-9.545,80.366-16.657,78.51,26.073-1.474,33.95,32.513,29.8,19.2,69.288-11.466,34-50.451,20.822-50.451,20.822L1425.5,1290.3Z" transform="translate(-365.479 -989.024)" fill="#b3d182"/>
            <path id="Path_207" data-name="Path 207" d="M3159.983,1686.087c44.068-29.915,105.162,9.072,117.176-37.784,12.386-48.3,70.892-51.953,70.892-51.953l59.743,194.693q-119.581-.016-239.156-.038h-8.9Z" transform="translate(-3117.6 -1159.138)" fill="#b3d182"/>
            <rect id="Rectangle_44" data-name="Rectangle 44" width="394.541" height="484.559" transform="translate(230.446 146.458)" fill="#00886a"/>
            <rect id="Rectangle_45" data-name="Rectangle 45" width="355.189" height="52.932" transform="translate(230.446 170.218)" fill="#6cb198"/>
            <rect id="Rectangle_46" data-name="Rectangle 46" width="445.584" height="373.622" transform="translate(432.526 257.39)" fill="#4ac195"/>
            <path id="Path_364" data-name="Path 364" d="M0,0H463.576V2.688L0,13.688Z" transform="translate(425.553 243.703)" fill="#ef7040"/>
            <rect id="Rectangle_48" data-name="Rectangle 48" width="409.816" height="13.688" transform="translate(223.128 139.615)" fill="#4ac195"/>
            <rect id="Rectangle_49" data-name="Rectangle 49" width="288.295" height="70.014" transform="translate(589.815 291.437)" fill="#ef7040"/>
            <rect id="Rectangle_50" data-name="Rectangle 50" width="268.942" height="149.17" transform="translate(878.11 302.015)" fill="#04a17f"/>
            <rect id="Rectangle_51" data-name="Rectangle 51" width="268.942" height="149.165" transform="translate(878.11 482.219)" fill="#04a17f"/>
            <rect id="Rectangle_52" data-name="Rectangle 52" width="231.667" height="31.034" transform="translate(878.11 451.18)" fill="#027e63"/>
            <g id="Group_82" data-name="Group 82" transform="translate(612.001 301.122)">
              <path id="Path_208" data-name="Path 208" d="M2076.114,1393.878a25.24,25.24,0,1,1,17.841-7.393A25.061,25.061,0,0,1,2076.114,1393.878Zm0-48.144a22.907,22.907,0,1,0,16.2,6.709A22.758,22.758,0,0,0,2076.114,1345.734Z" transform="translate(-2050.88 -1343.41)" fill="#fff"/>
              <circle id="Ellipse_9" data-name="Ellipse 9" cx="15.334" cy="15.334" r="15.334" transform="translate(9.9 9.905)" fill="#fff"/>
            </g>
            <g id="Group_83" data-name="Group 83" transform="translate(674.064 313.852)">
              <path id="Path_209" data-name="Path 209" d="M2181.88,1367.85h5.359v9.636h9.878v-9.636h5.359V1392.2h-5.359v-9.776h-9.878v9.776h-5.359Z" transform="translate(-2181.88 -1367.43)" fill="#fff"/>
              <path id="Path_210" data-name="Path 210" d="M2229.02,1379.665a12.947,12.947,0,0,1,25.885,0c0,6.994-5.461,12.6-12.977,12.6A12.491,12.491,0,0,1,2229.02,1379.665Zm20.278,0a7.4,7.4,0,0,0-7.376-7.656c-4.315,0-7.307,3.411-7.307,7.656a7.359,7.359,0,0,0,7.376,7.656C2246.307,1387.321,2249.3,1383.91,2249.3,1379.665Z" transform="translate(-2203.657 -1367.07)" fill="#fff"/>
              <path id="Path_211" data-name="Path 211" d="M2282.551,1388.35l3.164-3.793a11.174,11.174,0,0,0,7.269,2.959c2.19,0,3.514-.872,3.514-2.367,0-1.356-.834-2.05-4.907-3.094-4.907-1.254-8.071-2.61-8.071-7.516,0-4.417,3.551-7.339,8.522-7.339a14.1,14.1,0,0,1,9.044,3.094l-2.782,4.035a11.423,11.423,0,0,0-6.333-2.4c-2.055,0-3.131.942-3.131,2.19,0,1.6,1.044,2.12,5.251,3.2,4.939,1.286,7.721,3.061,7.721,7.376,0,4.837-3.686,7.549-8.942,7.549a15.491,15.491,0,0,1-10.33-3.9Z" transform="translate(-2228.381 -1367.13)" fill="#fff"/>
              <path id="Path_212" data-name="Path 212" d="M2327.05,1367.85H2337c5.811,0,9.324,3.443,9.324,8.49,0,5.633-4.385,8.56-9.846,8.56h-4.068v7.307h-5.359v-24.352Zm9.6,12.278c2.679,0,4.245-1.6,4.245-3.755,0-2.4-1.668-3.685-4.347-3.685h-4.137v7.446h4.245Z" transform="translate(-2248.944 -1367.43)" fill="#fff"/>
              <path id="Path_213" data-name="Path 213" d="M2370.69,1367.85h5.358V1392.2h-5.358Z" transform="translate(-2269.104 -1367.43)" fill="#fff"/>
              <path id="Path_214" data-name="Path 214" d="M2396.149,1372.789h-7.409v-4.939h20.176v4.939h-7.409V1392.2h-5.359Z" transform="translate(-2277.442 -1367.43)" fill="#fff"/>
              <path id="Path_215" data-name="Path 215" d="M2434.608,1367.52h4.939l10.438,24.529h-5.6l-2.227-5.461h-10.3l-2.227,5.461h-5.461Zm5.633,14.333-3.234-7.9-3.233,7.9h6.473Z" transform="translate(-2293.81 -1367.278)" fill="#fff"/>
              <path id="Path_216" data-name="Path 216" d="M2479.13,1367.85h5.359v19.482h12.144v4.869h-17.5V1367.85Z" transform="translate(-2319.199 -1367.43)" fill="#fff"/>
            </g>
            <rect id="Rectangle_53" data-name="Rectangle 53" width="179.682" height="118.583" transform="translate(230.451 453.935)" fill="#04a17f"/>
            <rect id="Rectangle_54" data-name="Rectangle 54" width="179.682" height="118.583" transform="translate(230.451 279.332)" fill="#04a17f"/>
            <rect id="Rectangle_55" data-name="Rectangle 55" width="351.45" height="46.718" transform="translate(230.446 173.037)" fill="#0c5646"/>
            <path id="Path_217" data-name="Path 217" d="M2470.474,1266.827l-445.584,13.44V1262.13h445.584Z" transform="translate(-1592.364 -1004.74)" fill="#006b54"/>
            <path id="Path_365" data-name="Path 365" d="M0,0H285.766V3.769L0,14.769Z" transform="translate(878.11 301.127)" fill="#6ed5af"/>
            <path id="Path_218" data-name="Path 218" d="M1093.563,1806.395c30.2,6.861,38.253,31.378,57.372,16.669s43.278-4.9,56.361-4.262,11.076-30.06,39.259-39.864c13.563-4.718,39.086-5.775,55.308-5.068,2.138,17.592,1.281,30.628.508,43.9-.643,11.015-.559,20.708-3.679,31.751-1.761,6.241-.545,2.93-2.431,9.655H1045.25c-11.071-26.655,18.123-59.645,48.313-52.779Z" transform="translate(85.929 -1227.784)" fill="#167769"/>
            <path id="Path_219" data-name="Path 219" d="M2299.774,840.312s-23.625-27.736-80.124-24.653c0,0-82.029-46.228-169.5-6.166,0,0-92.983-9.927-161.841,8.6-45.911,12.348-61.072,25.3-61.072,25.3l472.54-3.083Z" transform="translate(-1315.327 -788.09)" fill="#f8fcff"/>
            <path id="Path_220" data-name="Path 220" d="M2810.093,801.942a18.2,18.2,0,1,0-18.2,18.2A18.2,18.2,0,0,0,2810.093,801.942Z" transform="translate(-2334.863 -783.74)" fill="#f8fcff"/>
            <path id="Path_221" data-name="Path 221" d="M2085.786,1078.853s-12.94-15.189-43.887-13.5c0,0-44.926-25.32-92.838-3.373,0,0-50.925-5.44-88.641,4.708-25.148,6.763-33.449,13.86-33.449,13.86Z" transform="translate(-1101.187 -908.14)" fill="#f8fcff"/>
            <g id="Group_87" data-name="Group 87" transform="translate(495.664 466.627)">
              <rect id="Rectangle_57" data-name="Rectangle 57" width="313.104" height="163.837" fill="#004b3b"/>
              <rect id="Rectangle_58" data-name="Rectangle 58" width="293.509" height="152.931" transform="translate(9.071 11.455)" fill="#006b54"/>
              <rect id="Rectangle_59" data-name="Rectangle 59" width="271.88" height="35.139" transform="translate(19.584 21.129)" fill="#04a17f"/>
              <rect id="Rectangle_60" data-name="Rectangle 60" width="79.505" height="97.912" transform="translate(211.959 65.812)" fill="#04a17f"/>
              <rect id="Rectangle_61" data-name="Rectangle 61" width="97.745" height="97.912" transform="translate(106.655 65.812)" fill="#04a17f"/>
              <rect id="Rectangle_62" data-name="Rectangle 62" width="80.345" height="97.912" transform="translate(19.59 65.812)" fill="#04a17f"/>
              <path id="Path_222" data-name="Path 222" d="M2446.486,1773.34H2380.77v36.237l11.713,61.68h72.6Z" transform="translate(-2274.115 -1707.527)" fill="#4ac195"/>
              <g id="Group_86" data-name="Group 86" transform="translate(118.459 84.445)">
                <g id="Group_84" data-name="Group 84">
                  <rect id="Rectangle_63" data-name="Rectangle 63" width="73.124" height="79.392" fill="#fff"/>
                  <rect id="Rectangle_64" data-name="Rectangle 64" width="66.151" height="75.804" transform="translate(3.486 3.589)" fill="#45391d"/>
                  <rect id="Rectangle_65" data-name="Rectangle 65" width="2.464" height="75.804" transform="translate(35.333 3.589)" fill="#fff"/>
                </g>
                <g id="Group_85" data-name="Group 85" transform="translate(29.441 39.922)">
                  <path id="Path_223" data-name="Path 223" d="M2437.466,1883.736a1.563,1.563,0,1,0-1.56,1.566A1.563,1.563,0,0,0,2437.466,1883.736Z" transform="translate(-2423.219 -1882.17)" fill="#fff"/>
                  <path id="Path_224" data-name="Path 224" d="M2458.14,1883.736a1.56,1.56,0,1,0-1.56,1.566A1.562,1.562,0,0,0,2458.14,1883.736Z" transform="translate(-2455.02 -1882.17)" fill="#fff"/>
                </g>
              </g>
              <path id="Path_225" data-name="Path 225" d="M2257.36,1773.34h-40.25l12.848,97.917h40.256Z" transform="translate(-1991.189 -1707.527)" fill="#4ac195"/>
              <path id="Path_226" data-name="Path 226" d="M2243.32,1690.29l4.611,35.139h40.25l-4.611-35.139Z" transform="translate(-2023.259 -1669.161)" fill="#4ac195"/>
              <path id="Path_227" data-name="Path 227" d="M2601.69,1773.34h-40.25l12.848,97.917h40.25Z" transform="translate(-2520.775 -1707.527)" fill="#4ac195"/>
              <path id="Path_228" data-name="Path 228" d="M2587.64,1690.29l4.611,35.139h40.256l-4.611-35.139Z" transform="translate(-2552.84 -1669.161)" fill="#4ac195"/>
              <path id="Path_229" data-name="Path 229" d="M2418.7,1690.29l6.677,35.139h72.6l-6.677-35.139Z" transform="translate(-2327.417 -1669.161)" fill="#4ac195"/>
            </g>
            <path id="Path_230" data-name="Path 230" d="M2550.241,1786.53h-.151l.151.78Z" transform="translate(-1954.707 -1246.994)" fill="#cce1ff"/>
            <path id="Path_231" data-name="Path 231" d="M2187.084,1926.277s1.931-17.1-15.409-21.441-24.142-19.816-44.275-6.812-13.763,28.252-13.763,28.252h73.442Z" transform="translate(-1356.273 -1296.147)" fill="#acd29a"/>
            <path id="Path_232" data-name="Path 232" d="M2966.279,1421.493h59.453l-26.009-118.583H2940.27Z" transform="translate(-2640.127 -1023.578)" fill="#4ac195"/>
            <path id="Path_233" data-name="Path 233" d="M3064.188,1746.013h59.453l-26.009-118.583h-59.453Z" transform="translate(-2790.716 -1173.495)" fill="#4ac195"/>
            <path id="Path_234" data-name="Path 234" d="M2894.68,1627.43l26.014,118.583h26.095V1627.43Z" transform="translate(-2536.656 -1173.495)" fill="#4ac195"/>
            <path id="Path_235" data-name="Path 235" d="M3107.17,1302.91v118.583h65.355L3143.5,1302.91Z" transform="translate(-2876.719 -1023.578)" fill="#4ac195"/>
            <rect id="Rectangle_66" data-name="Rectangle 66" width="4.955" height="46.718" transform="translate(490.881 173.037)" fill="#6cb198"/>
            <rect id="Rectangle_67" data-name="Rectangle 67" width="4.955" height="46.718" transform="translate(390.866 173.037)" fill="#6cb198"/>
            <rect id="Rectangle_68" data-name="Rectangle 68" width="4.955" height="46.718" transform="translate(293.326 173.037)" fill="#6cb198"/>
            <g id="Group_94" data-name="Group 94" transform="translate(912.469 354.038)" opacity="0.5">
              <g id="Group_89" data-name="Group 89" transform="translate(172.053)">
                <rect id="Rectangle_69" data-name="Rectangle 69" width="29.791" height="47.024" transform="translate(1.232 1.517)" fill="#4ac195"/>
                <g id="Group_88" data-name="Group 88">
                  <path id="Path_236" data-name="Path 236" d="M1580.25,1491.819h32.82V1441.76h-32.82Zm29.791-3.029h-26.762v-43.995h26.762Z" transform="translate(-1580.25 -1441.76)" fill="#006b54"/>
                  <rect id="Rectangle_70" data-name="Rectangle 70" width="27.52" height="2.271" transform="translate(2.647 17.244)" fill="#006b54"/>
                  <rect id="Rectangle_71" data-name="Rectangle 71" width="27.52" height="2.271" transform="translate(2.647 32.89)" fill="#006b54"/>
                  <rect id="Rectangle_72" data-name="Rectangle 72" width="47.25" height="2.271" transform="translate(17.54 1.291) rotate(90)" fill="#006b54"/>
                </g>
              </g>
              <g id="Group_91" data-name="Group 91" transform="translate(86.026)">
                <rect id="Rectangle_73" data-name="Rectangle 73" width="29.791" height="47.024" transform="translate(1.232 1.517)" fill="#4ac195"/>
                <g id="Group_90" data-name="Group 90">
                  <path id="Path_237" data-name="Path 237" d="M1740.14,1491.819h32.82V1441.76h-32.82Zm29.791-3.029h-26.762v-43.995h26.762Z" transform="translate(-1740.14 -1441.76)" fill="#006b54"/>
                  <rect id="Rectangle_74" data-name="Rectangle 74" width="27.52" height="2.271" transform="translate(2.647 17.244)" fill="#006b54"/>
                  <rect id="Rectangle_75" data-name="Rectangle 75" width="27.52" height="2.271" transform="translate(2.647 32.89)" fill="#006b54"/>
                  <rect id="Rectangle_76" data-name="Rectangle 76" width="47.25" height="2.271" transform="translate(17.54 1.291) rotate(90)" fill="#006b54"/>
                </g>
              </g>
              <g id="Group_93" data-name="Group 93">
                <rect id="Rectangle_77" data-name="Rectangle 77" width="29.791" height="47.024" transform="translate(1.232 1.517)" fill="#4ac195"/>
                <g id="Group_92" data-name="Group 92">
                  <path id="Path_238" data-name="Path 238" d="M1900.03,1491.819h32.82V1441.76h-32.82Zm29.791-3.029h-26.762v-43.995h26.762Z" transform="translate(-1900.03 -1441.76)" fill="#006b54"/>
                  <rect id="Rectangle_78" data-name="Rectangle 78" width="27.52" height="2.271" transform="translate(2.647 17.244)" fill="#006b54"/>
                  <rect id="Rectangle_79" data-name="Rectangle 79" width="27.52" height="2.271" transform="translate(2.647 32.89)" fill="#006b54"/>
                  <rect id="Rectangle_80" data-name="Rectangle 80" width="47.25" height="2.271" transform="translate(17.54 1.291) rotate(90)" fill="#006b54"/>
                </g>
              </g>
            </g>
            <g id="Group_101" data-name="Group 101" transform="translate(912.469 515.281)" opacity="0.5">
              <g id="Group_96" data-name="Group 96" transform="translate(172.053)">
                <rect id="Rectangle_81" data-name="Rectangle 81" width="29.791" height="47.024" transform="translate(1.232 1.517)" fill="#4ac195"/>
                <g id="Group_95" data-name="Group 95">
                  <path id="Path_239" data-name="Path 239" d="M1580.25,1791.509h32.82V1741.45h-32.82Zm29.791-3.029h-26.762v-43.995h26.762Z" transform="translate(-1580.25 -1741.45)" fill="#006b54"/>
                  <rect id="Rectangle_82" data-name="Rectangle 82" width="27.52" height="2.271" transform="translate(2.647 17.244)" fill="#006b54"/>
                  <rect id="Rectangle_83" data-name="Rectangle 83" width="27.52" height="2.271" transform="translate(2.647 32.895)" fill="#006b54"/>
                  <rect id="Rectangle_84" data-name="Rectangle 84" width="47.25" height="2.271" transform="translate(17.545 1.297) rotate(90)" fill="#006b54"/>
                </g>
              </g>
              <g id="Group_98" data-name="Group 98" transform="translate(86.026)">
                <rect id="Rectangle_85" data-name="Rectangle 85" width="29.791" height="47.024" transform="translate(1.232 1.517)" fill="#4ac195"/>
                <g id="Group_97" data-name="Group 97">
                  <path id="Path_240" data-name="Path 240" d="M1740.14,1791.509h32.82V1741.45h-32.82Zm29.791-3.029h-26.762v-43.995h26.762Z" transform="translate(-1740.14 -1741.45)" fill="#006b54"/>
                  <rect id="Rectangle_86" data-name="Rectangle 86" width="27.52" height="2.271" transform="translate(2.647 17.244)" fill="#006b54"/>
                  <rect id="Rectangle_87" data-name="Rectangle 87" width="27.52" height="2.271" transform="translate(2.647 32.895)" fill="#006b54"/>
                  <rect id="Rectangle_88" data-name="Rectangle 88" width="47.25" height="2.271" transform="translate(17.545 1.297) rotate(90)" fill="#006b54"/>
                </g>
              </g>
              <g id="Group_100" data-name="Group 100">
                <rect id="Rectangle_89" data-name="Rectangle 89" width="29.791" height="47.024" transform="translate(1.232 1.517)" fill="#4ac195"/>
                <g id="Group_99" data-name="Group 99">
                  <path id="Path_241" data-name="Path 241" d="M1900.03,1791.509h32.82V1741.45h-32.82Zm29.791-3.029h-26.762v-43.995h26.762Z" transform="translate(-1900.03 -1741.45)" fill="#006b54"/>
                  <rect id="Rectangle_90" data-name="Rectangle 90" width="27.52" height="2.271" transform="translate(2.647 17.244)" fill="#006b54"/>
                  <rect id="Rectangle_91" data-name="Rectangle 91" width="27.52" height="2.271" transform="translate(2.647 32.895)" fill="#006b54"/>
                  <rect id="Rectangle_92" data-name="Rectangle 92" width="47.25" height="2.271" transform="translate(17.545 1.297) rotate(90)" fill="#006b54"/>
                </g>
              </g>
            </g>
            <rect id="Rectangle_93" data-name="Rectangle 93" width="465.637" height="16.389" transform="translate(419.398 417.154)" fill="#ef7040"/>
            <path id="Path_242" data-name="Path 242" d="M1815.861,1321.431s-8.049-26.2-27.87-25.6-26.009,18.837-32.82,15.91-26.633-1.237-27.87,9.685h88.561Z" transform="translate(-777.636 -1020.304)" fill="#29a08f"/>
            <g id="Group_106" data-name="Group 106" transform="translate(62.245 479.642)">
              <g id="Group_102" data-name="Group 102" transform="translate(269.523 54.04)">
                <path id="Path_243" data-name="Path 243" d="M3469.12,1781.87v11.1a6.212,6.212,0,0,1-6.219,6.22h-1.991a6.24,6.24,0,0,1-6.219-6.22v-11.1a6.11,6.11,0,0,1,.9-3.2v-.016a6.23,6.23,0,0,1,5.315-3.008h1.991A6.24,6.24,0,0,1,3469.12,1781.87Z" transform="translate(-3454.685 -1775.65)" fill="#002822"/>
                <path id="Path_244" data-name="Path 244" d="M3468.459,1798.342a6.235,6.235,0,0,1-5.569,3.443H3460.9a6.24,6.24,0,0,1-6.219-6.22v-11.1a6.11,6.11,0,0,1,.9-3.2C3455.7,1781.959,3458.344,1797.185,3468.459,1798.342Z" transform="translate(-3454.68 -1778.246)" fill="#233862" opacity="0.3"/>
              </g>
              <path id="Path_245" data-name="Path 245" d="M3297.109,1911.589h30.743V1880.56H3295.78Z" transform="translate(-3111.75 -1770.074)" fill="#070707"/>
              <path id="Path_246" data-name="Path 246" d="M3348.737,1751.132l-151.037,3.723V1675.21h99.181a25.2,25.2,0,0,1,22.426,13.709l6.489,12.665Z" transform="translate(-3066.441 -1675.21)" fill="#fff"/>
              <path id="Path_247" data-name="Path 247" d="M3318.666,1913.632c0,8.426,4.347,17.712,4.347,17.712h7.354c6.462,0,11.7-7.931,11.7-17.712s-12.6-17.712-19.057-17.712S3318.666,1903.85,3318.666,1913.632Z" transform="translate(-3122.171 -1777.17)" fill="#01483f"/>
              <path id="Path_248" data-name="Path 248" d="M3305.28,1913.632c0,9.781,5.24,17.712,11.7,17.712s11.7-7.931,11.7-17.712-5.24-17.712-11.7-17.712S3305.28,1903.85,3305.28,1913.632Z" transform="translate(-3116.139 -1777.17)" fill="#45391d"/>
              <path id="Path_249" data-name="Path 249" d="M3310.92,1917.383c0,7.371,3.944,13.344,8.813,13.344s8.813-5.972,8.813-13.344-3.944-13.343-8.813-13.343S3310.92,1910.012,3310.92,1917.383Z" transform="translate(-3118.745 -1780.921)" fill="#afcdfb"/>
              <path id="Path_250" data-name="Path 250" d="M3475.846,1913.632c0,8.426,4.347,17.712,4.347,17.712h7.355c6.462,0,11.7-7.931,11.7-17.712s-12.6-17.712-19.057-17.712S3475.846,1903.85,3475.846,1913.632Z" transform="translate(-3194.782 -1777.17)" fill="#01483f"/>
              <path id="Path_251" data-name="Path 251" d="M3462.46,1913.632c0,9.781,5.24,17.712,11.7,17.712s11.7-7.931,11.7-17.712-5.241-17.712-11.7-17.712S3462.46,1903.85,3462.46,1913.632Z" transform="translate(-3188.751 -1777.17)" fill="#45391d"/>
              <path id="Path_252" data-name="Path 252" d="M3114.9,1913.632c0,8.426,4.347,17.712,4.347,17.712h7.355c6.462,0,11.7-7.931,11.7-17.712s-12.6-17.712-19.052-17.712-4.347,7.931-4.347,17.712Z" transform="translate(-3028.041 -1777.17)" fill="#01483f"/>
              <path id="Path_253" data-name="Path 253" d="M3101.51,1913.632c0,9.781,5.24,17.712,11.7,17.712s11.7-7.931,11.7-17.712-5.241-17.712-11.7-17.712S3101.51,1903.85,3101.51,1913.632Z" transform="translate(-3022.005 -1777.17)" fill="#45391d"/>
              <path id="Path_254" data-name="Path 254" d="M3384.373,1865.828A13.379,13.379,0,0,1,3371,1879.236h-86.634a26.311,26.311,0,0,0,.382-4.514c0-11.455-6.871-20.747-15.334-20.747s-15.344,9.3-15.344,20.747a26.851,26.851,0,0,0,.366,4.514h-50.624s-2.039-22.6-1.786-33.939c.2-9.862.2-29.188-.382-33.907,0-.7,48.816-.786,61.142-.834,1.673-.016,2.674-.016,2.776-.016l.167.118.183.135c2.276,1.587,15.016,10.513,22.92,15.748,6.973,4.6,58.431,6.472,78.612,7.037,5.015.135,8.108.183,8.108.183a36.253,36.253,0,0,1,5.2,7.29,27.616,27.616,0,0,1,3.578,12.773c.016,3.024.032,6.672.032,10.25.016.586.016,1.173.016,1.754Z" transform="translate(-3068.261 -1737.728)" fill="#fff"/>
              <path id="Path_255" data-name="Path 255" d="M3379.811,1774.193h-67.878a4.009,4.009,0,0,1-3.642-2.34l-16.8-37.383a1.852,1.852,0,0,1,1.689-2.609h71.607a3.984,3.984,0,0,1,3.643,2.389l12.036,27.5,3.008,6.871a3.988,3.988,0,0,1-3.664,5.569Z" transform="translate(-3109.691 -1701.38)" fill="#97c157"/>
              <path id="Path_256" data-name="Path 256" d="M3304.932,1801.561c-.016,1.173-.064,2.281-.129,3.26-.49,6.5-7.021,11.9-7.021,11.9h-15.248a26.964,26.964,0,0,0-1.786-15.162c-2.7-6.047-7.576-10.1-13.16-10.1s-10.486,4.052-13.182,10.1a26.581,26.581,0,0,0-2.174,10.648,26.873,26.873,0,0,0,.371,4.514H3197.68v-141.5h44.086l.21,26.369a41.407,41.407,0,0,0,2.249,7.484c1.345,3.153,3.137,7.355,5.09,11.923,4.014,9.373,8.7,20.311,11.632,27.047,1.469,3.411,2.507,5.735,2.776,6.236.823,1.571,13.058,8.2,23.4,14.08,2.577,1.469,5.047,2.889,7.183,4.17a50.889,50.889,0,0,1,6.548,4.4c2.825,2.545,4.229,15.754,4.078,24.626Z" transform="translate(-3066.432 -1675.214)" fill="#c9fce9"/>
              <path id="Path_257" data-name="Path 257" d="M3430.42,1833.767h-80.447l-29.377-23.108-.167-.118h81.152l23.108,18.594Z" transform="translate(-3123.137 -1737.728)" fill="#fff"/>
              <path id="Path_258" data-name="Path 258" d="M3382.651,1866.046l-7.274-.721a5.694,5.694,0,0,1-5.046-4.665l-1.674-9.2a1.329,1.329,0,0,1-.032-.436c5.181,2.975,9.545,5.633,11.2,7.124C3381.031,1859.24,3381.984,1862.248,3382.651,1866.046Z" transform="translate(-3145.399 -1756.432)" fill="#a8302d"/>
              <path id="Path_259" data-name="Path 259" d="M3352.5,1701.584h-83.81a48.4,48.4,0,0,0-2.426-11.487c-1.872-5.407-5.106-11.444-10.772-14.887h68.487c11.164,0,21.059,5.961,24.986,14.887.183.371.344.737.484,1.108a69.755,69.755,0,0,1,3.051,10.379Z" transform="translate(-3093.138 -1675.21)" fill="#fff"/>
              <path id="Path_260" data-name="Path 260" d="M3382.667,1866.033l-7.291-.721a5.694,5.694,0,0,1-5.046-4.665l-1.674-9.2a1.428,1.428,0,0,1-.032-.452c5.181,2.992,9.545,5.65,11.2,7.14C3381.031,1859.226,3381.984,1862.234,3382.667,1866.033Z" transform="translate(-3145.399 -1756.419)" fill="#a2c2dd"/>
              <path id="Path_261" data-name="Path 261" d="M3453.861,1911.794c.016,7.4-6.268,13.408-14.026,13.408h-85.983a27.083,27.083,0,0,0-1.792-15.162h101.78c.016.586.016,1.173.016,1.754Z" transform="translate(-3137.75 -1783.693)" fill="#002822"/>
              <path id="Path_262" data-name="Path 262" d="M3252.237,1920.688a26.854,26.854,0,0,0,.366,4.514H3197.68V1910.04H3254.4a26.471,26.471,0,0,0-2.174,10.648Z" transform="translate(-3066.432 -1783.693)" fill="#002822"/>
              <path id="Path_263" data-name="Path 263" d="M3434.5,1854.915h32.9c1.049,0,1.856,1.415,1.695,2.986l-1.167,11.433c-.172,1.679-1.13,2.922-2.254,2.922h-27.106c-1.738,0-3.271-1.722-3.777-4.234l-1.953-9.722c-.339-1.684.495-3.39,1.662-3.39Z" transform="translate(-3175.03 -1758.225)" fill="#01644c"/>
              <path id="Path_264" data-name="Path 264" d="M3394.339,1761.753c-38.8-1.991-65.054-22.754-72.979-29.893h57.3a3.984,3.984,0,0,1,3.643,2.389l12.036,27.5Z" transform="translate(-3123.568 -1701.38)" fill="#b8db70"/>
              <rect id="Rectangle_94" data-name="Rectangle 94" width="146.776" height="141.525" transform="translate(0 0)" fill="#fff"/>
              <path id="Path_265" data-name="Path 265" d="M3361.746,1714.367h-83.81a48.417,48.417,0,0,0-2.427-11.487h82.7c.183.371.344.737.484,1.108a69.754,69.754,0,0,1,3.051,10.379Z" transform="translate(-3102.386 -1687.993)" fill="#c9fce9"/>
              <path id="Path_266" data-name="Path 266" d="M3522.088,1857.013a2.719,2.719,0,0,1-1.722,1.388l-11.282,2.088c-.952.183-1.689-1.469-1.437-3.175l1.1-7.592.032-.183.215-1.555a3.269,3.269,0,0,1,1.507-2.642l.651-.253,5.736,4.633A36.272,36.272,0,0,1,3522.088,1857.013Z" transform="translate(-3209.603 -1753.688)" fill="#01644c"/>
              <rect id="Rectangle_95" data-name="Rectangle 95" width="234.422" height="11.928" transform="translate(0 93.145)" fill="#e65924"/>
              <rect id="Rectangle_96" data-name="Rectangle 96" width="146.776" height="11.923" transform="translate(0 24.518)" fill="#e65924"/>
              <g id="Group_104" data-name="Group 104" transform="translate(52.496 43.64)">
                <path id="Path_267" data-name="Path 267" d="M3051.31,1777.212A20.892,20.892,0,1,1,3072.2,1798.1,20.888,20.888,0,0,1,3051.31,1777.212Z" transform="translate(-3051.31 -1756.32)" fill="#e65924"/>
                <g id="Group_103" data-name="Group 103" transform="translate(2.394 2.394)">
                  <path id="Path_268" data-name="Path 268" d="M3074.257,1797.765a18.5,18.5,0,1,1,13.08-5.418A18.384,18.384,0,0,1,3074.257,1797.765Zm0-35.3a16.79,16.79,0,1,0,11.875,4.918A16.686,16.686,0,0,0,3074.257,1762.47Z" transform="translate(-3055.76 -1760.77)" fill="#fff"/>
                  <circle id="Ellipse_10" data-name="Ellipse 10" cx="9.954" cy="9.954" r="9.954" transform="translate(8.544 8.544)" fill="#fff"/>
                </g>
              </g>
              <path id="Path_269" data-name="Path 269" d="M3396.453,1864.681l-13.8-1.372h-.017l-7.274-.721a5.694,5.694,0,0,1-5.047-4.665l-1.673-9.2a1.329,1.329,0,0,1-.032-.436v-.016a3.063,3.063,0,0,1,3.68-3.11l21.484,4.363a3.7,3.7,0,0,1,2.824,2.642l2.523,9.329a2.514,2.514,0,0,1-2.674,3.174Z" transform="translate(-3145.395 -1753.695)" fill="#01644c"/>
              <path id="Path_270" data-name="Path 270" d="M3266.136,1739.256l14.457,35.613h-24.809s-5.09-.85-5.74-11.25c-.694-11.1-.694-30.265-.694-30.265l10.89-.053C3264.388,1733.929,3265.039,1736.205,3266.136,1739.256Z" transform="translate(-3090.302 -1702.046)" fill="#97c157"/>
              <path id="Path_271" data-name="Path 271" d="M3288.719,1776.57s1.254,14.392-5.849,18.336h13.273l-7.425-18.336Z" transform="translate(-3105.787 -1722.035)" fill="#070707"/>
              <path id="Path_272" data-name="Path 272" d="M3294.575,1791.121s-3-2.13-3.255-3.9v10.067h3.922Z" transform="translate(-3109.69 -1726.955)" fill="#002822"/>
              <path id="Path_273" data-name="Path 273" d="M3278.93,1781.87v11.1a6.213,6.213,0,0,1-6.22,6.22h-1.991a6.24,6.24,0,0,1-6.22-6.22v-11.1a6.11,6.11,0,0,1,.9-3.2v-.016a6.23,6.23,0,0,1,5.316-3.008h1.991a6.24,6.24,0,0,1,6.219,6.22Z" transform="translate(-3097.3 -1721.61)" fill="#002822"/>
              <path id="Path_274" data-name="Path 274" d="M3140.621,1920.688a14.774,14.774,0,0,0,.678,4.514H3040.24V1910.04h104.384a16.835,16.835,0,0,0-4,10.648Z" transform="translate(-2993.7 -1783.693)" fill="#002822"/>
              <path id="Path_275" data-name="Path 275" d="M3054.121,1920.688a14.782,14.782,0,0,0,.678,4.514H2953.74V1910.04h104.379A16.835,16.835,0,0,0,3054.121,1920.688Z" transform="translate(-2953.74 -1783.693)" fill="#002822"/>
              <path id="Path_276" data-name="Path 276" d="M3011.426,1915.516h-36.1c-.764-3.261-3.061-26.466,17.174-26.466,18.385,0,19.741,21.172,18.928,26.466Z" transform="translate(-2963.487 -1773.997)" fill="#070707"/>
              <g id="Group_105" data-name="Group 105" transform="translate(15.781 118.75)">
                <path id="Path_277" data-name="Path 277" d="M2996.456,1913.632c0,8.426,4.347,17.712,4.347,17.712h7.355c6.462,0,11.7-7.931,11.7-17.712s-12.6-17.712-19.057-17.712S2996.456,1903.85,2996.456,1913.632Z" transform="translate(-2989.101 -1895.92)" fill="#01483f"/>
                <path id="Path_278" data-name="Path 278" d="M2983.07,1913.632c0,9.781,5.24,17.712,11.7,17.712s11.7-7.931,11.7-17.712-5.24-17.712-11.7-17.712S2983.07,1903.85,2983.07,1913.632Z" transform="translate(-2983.07 -1895.92)" fill="#45391d"/>
                <path id="Path_279" data-name="Path 279" d="M2988.71,1917.383c0,7.371,3.944,13.344,8.813,13.344s8.813-5.972,8.813-13.344-3.944-13.343-8.812-13.343S2988.71,1910.012,2988.71,1917.383Z" transform="translate(-2985.676 -1899.671)" fill="#afcdfb"/>
              </g>
            </g>
            <g id="Group_107" data-name="Group 107" transform="translate(527.278 426.616)">
              <path id="Path_280" data-name="Path 280" d="M2575.457,1621.229c.748-1.442-16.319-6.639-16.588,7.6,0,0-31.97-.785-16.706-18.605,5.283-6.166,4.74-11.272,4.584-16.017s3.293-18.546,15.124-17.158a8.818,8.818,0,0,1,6.968.748C2577.636,1582.356,2597.333,1626.48,2575.457,1621.229Z" transform="translate(-2510.677 -1576.655)" fill="#070707"/>
              <path id="Path_281" data-name="Path 281" d="M2666.206,1685.85s-2.082-3.169-3.755-3.228-4.783-.931-4.535-.312,2.174.683,2.362,1.054-2.857.931-3.729,1-2.922,0-2.857.436,3.7,2.238,6.257,1.985a17.389,17.389,0,0,1,5.73.748Z" transform="translate(-2653.69 -1625.362)" fill="#f5c99d"/>
              <path id="Path_282" data-name="Path 282" d="M2629.1,1669.268a31.168,31.168,0,0,1-3.185,4.815c-2.475,3.1-6.284,6.677-11.072,7.382a11.864,11.864,0,0,1-6.581-1.071h-.005c-5.816-2.583-10.185-8.517-10.185-8.517a4.775,4.775,0,0,1,.651-4.692s11.74,2.642,12.859,2.082,7.64-19.348,9.195-21.71,6.849-3.589,6.849-3.589l1.48,25.3Z" transform="translate(-2586.487 -1607.752)" fill="#002822"/>
              <path id="Path_283" data-name="Path 283" d="M2523.79,1925.2s3.583,3.271,2.884,5.59-3.933,3.874-4.369,6.709-2.185,4.391-3.755,4.391h-7.5s-1.156-2,1.636-2.6,3.852-3.938,3.675-7.037a54.926,54.926,0,0,1,.264-7.226l5.94-1.377,1.221,1.55Z" transform="translate(-2437.375 -1736.955)" fill="#070707"/>
              <path id="Path_284" data-name="Path 284" d="M2592.187,1929.11s1.291,13.849-.285,14.624l-20.128-.043s0-2.324,3.234-2.841,8.91-2.41,9.873-6.623S2592.187,1929.11,2592.187,1929.11Z" transform="translate(-2536.096 -1739.477)" fill="#070707"/>
              <path id="Path_285" data-name="Path 285" d="M2579.754,1686.892c-4.143-9.286-6.677-11.955-6.193-14.839.36-2.147-1.1-40.008-1.1-40.008-.49-.151-1.474-.291-2.018-.409a5.052,5.052,0,0,1-3.691-3.212,25.821,25.821,0,0,1-1.253-8.544l-.533.1-8.92,1.765s.2,2.808.21,5.45v.064a5.128,5.128,0,0,1-3.7,4.96c-1.125.323-2.109.6-2.109.6a81.712,81.712,0,0,0-3.9,18.96c-.624,9.609,5.956,13.779-.049,32.981-6.134,19.611,35.537,7.242,33.251,2.109Z" transform="translate(-2509.319 -1596.624)" fill="#f5c99d"/>
              <path id="Path_286" data-name="Path 286" d="M2573.51,1621.85s.2,2.809.21,5.45c4.993-.14,7.629-4.7,8.711-7.22l-8.921,1.765Z" transform="translate(-2526.775 -1596.716)" fill="#d8a982"/>
              <path id="Path_287" data-name="Path 287" d="M2574.906,1610.917s11.81.194,11.821-7.161,1.539-12.289-6-12.725-9.007,2.373-9.61,4.826S2571.834,1610.675,2574.906,1610.917Z" transform="translate(-2529.839 -1583.276)" fill="#f5c99d"/>
              <path id="Path_288" data-name="Path 288" d="M2563.91,1589.449s3.234,8.63,8.194,9.911,7.118-.054,7.118-.054a14.03,14.03,0,0,1-4.595-8.3s-8.275-5.66-10.718-1.55Z" transform="translate(-2518.402 -1581.877)" fill="#070707"/>
              <path id="Path_289" data-name="Path 289" d="M2596.861,1590.833a7.328,7.328,0,0,0-3.385,2.647,11.93,11.93,0,0,0-1.6,6.752s-2.437-5.865.3-9.184C2595.085,1587.529,2596.861,1590.833,2596.861,1590.833Z" transform="translate(-2550.551 -1582.555)" fill="#070707"/>
              <path id="Path_290" data-name="Path 290" d="M2592.661,1619.187a2.967,2.967,0,0,1-2.443,1,2.173,2.173,0,0,1-1.818-1.2,7.939,7.939,0,0,1,4.267.2Z" transform="translate(-2545.022 -1596.113)" fill="#ebf3fa"/>
              <path id="Path_291" data-name="Path 291" d="M2582.647,1659.249s-.043,5.6-.345,10.675c-.2,3.363-.511,6.494-.99,7.613-1.21,2.8-2.577,3.25-2.577,3.25l-10.567,2.588-3.718.909-11.719-3.5s-5.337-14.9-3.2-23.281a64.274,64.274,0,0,1,5.418-14.21s9.561,9.362,22.011-.8Z" transform="translate(-2513.821 -1607.073)" fill="#002822"/>
              <path id="Path_292" data-name="Path 292" d="M2573.307,1717.86s-5.805,18.062-6.176,24.212,11.094,87.361,11.552,90.2c.436,2.669,3.75,4.374,3.75,4.374a5.029,5.029,0,0,0,3.7.285c3.018-.856,3.976-1.873,3.976-1.873s4.52-57.919,1.722-78.607a328.5,328.5,0,0,1-2.83-38.582h-15.7Z" transform="translate(-2533.653 -1641.887)" fill="#e65924"/>
              <path id="Path_293" data-name="Path 293" d="M2541.3,1716.855s8.851,11.88,9.679,19.907,1.3,36.231,3.051,44.054,8.216,22.888,8.216,47.3a4.885,4.885,0,0,1-2.744,2.147,23.017,23.017,0,0,1-2.416.667,3.8,3.8,0,0,1-4.245-2.018c-4.369-8.792-18.277-37.151-18.993-43.037-.506-4.164-4.9-31.739-14.479-47.917-2.3-3.885,1.41-19.332,1.41-19.332l20.51-1.776Z" transform="translate(-2477.061 -1641.42)" fill="#f99746"/>
              <path id="Path_294" data-name="Path 294" d="M2593.017,1619.433s-.2.866-2.362.732c0,0-1.813-.113-1.754-1.065A5.817,5.817,0,0,1,2593.017,1619.433Z" transform="translate(-2545.642 -1596.16)" fill="#fff"/>
              <path id="Path_295" data-name="Path 295" d="M2555.547,1712.67s2.33,1.845,6.957,1.937c5.526.113,19.224-1.41,19.224-1.41a11.4,11.4,0,0,1,.587,3.5s-16.728,4.218-26.423.619a6.131,6.131,0,0,1-.344-4.638Z" transform="translate(-2516.818 -1639.49)" fill="#070707"/>
              <path id="Path_296" data-name="Path 296" d="M2594.857,1717.367a2.543,2.543,0,1,0-2.523,2.857A2.707,2.707,0,0,0,2594.857,1717.367Zm-.839,0a1.712,1.712,0,1,1-1.684-2.018A1.877,1.877,0,0,1,2594.017,1717.367Z" transform="translate(-2547.971 -1640.339)" fill="#fff"/>
              <rect id="Rectangle_97" data-name="Rectangle 97" width="26.934" height="15.097" transform="translate(56.755 94.861) rotate(-12.17)" fill="#45391d"/>
              <path id="Path_297" data-name="Path 297" d="M2522.47,1748.166s7.36,6.166,15.539,4.019a16.353,16.353,0,0,0,10.788-9.7Z" transform="translate(-2465.679 -1653.265)" fill="#847d3d"/>
              <path id="Path_298" data-name="Path 298" d="M2564.767,1749.983a1.463,1.463,0,1,0-1.463,1.463A1.465,1.465,0,0,0,2564.767,1749.983Zm-.484,0a.974.974,0,1,1-.974-.974A.978.978,0,0,1,2564.283,1749.983Z" transform="translate(-2502.833 -1656.051)" fill="#eaf7f9"/>
              <path id="Path_299" data-name="Path 299" d="M2514.958,1753.035a12.029,12.029,0,0,0,.414,3.169c.4,1.033,1.625,2.405,2.029,2.405s-.371-2.147-.167-2.1,1.178,3.578,1.889,3.664,1.356-3.965.985-5.552a10.8,10.8,0,0,0-1.974-3.5l-3.169,1.915Z" transform="translate(-2433.057 -1657.252)" fill="#f5c99d"/>
              <path id="Path_300" data-name="Path 300" d="M2523.611,1642.5a14.391,14.391,0,0,1,10.05,7.818c2.717,5.353,4.584,22.2,6.5,27.5a166.2,166.2,0,0,1,5.778,22.748,1.3,1.3,0,0,1-.8,1.436l-2.4.952a1.136,1.136,0,0,1-1.394-.473c-2.136-3.583-10.551-17.943-13.478-26.245a43.413,43.413,0,0,0-9.808-15.743Z" transform="translate(-2460.466 -1607.073)" fill="#002822"/>
              <path id="Path_301" data-name="Path 301" d="M2559.56,1699.866c-.016-.242-1.533-24.26-1.243-37.759a56.178,56.178,0,0,1,2.141-15.027,10.89,10.89,0,0,1,2.464-4.589l.495.145c-.038.059-4.068,6.123-4.358,19.482-.29,13.472,1.227,37.458,1.243,37.7Z" transform="translate(-2499.568 -1607.068)" fill="#eaf7f9"/>
            </g>
            <g id="Group_110" data-name="Group 110" transform="translate(932.788 424.004)">
              <g id="Group_108" data-name="Group 108" transform="translate(26.989 117.106)">
                <path id="Path_302" data-name="Path 302" d="M1834.76,1866.618l3.734-1.211a117.173,117.173,0,0,0-.888-22.264c-1.049-7.689-2.981-16.017-6.473-22.705a29.376,29.376,0,0,0-5.762-7.866s-2.862-6.645-6.655-15.533c-4.218-9.878-30.6-12.773-15.544,7.92,3.088,4.245,6.408,11.724,10.379,16.259a89.989,89.989,0,0,1,14.877,24.8,111,111,0,0,1,6.333,20.6Z" transform="translate(-1798.575 -1789.456)" fill="#f5c99d"/>
                <path id="Path_303" data-name="Path 303" d="M1806.336,1921.779c1.13,1.835-1.313,3.626-4.331,5.321s-1.77,1.862-5.633,4.74-6.139,2.561-6.731,2.136c-.527-.371,1.054-2.147,2.712-4.094.21-.242.414-.49.624-.737,1.851-2.217,2.125-5,2.991-7.882.823-2.733-.484-9.529-.484-9.529l5.16-4.094s1.049,6.177,1.625,8.749a7.942,7.942,0,0,0,2.577,3.712,8.55,8.55,0,0,1,1.5,1.679Z" transform="translate(-1761.655 -1844.053)" fill="#f5c99d"/>
                <path id="Path_304" data-name="Path 304" d="M1801.995,1937.8c-3.018,1.695-1.77,1.862-5.633,4.74s-6.139,2.561-6.731,2.136c-.527-.371,1.055-2.147,2.712-4.094l.048.022a13.5,13.5,0,0,0,6.467-3.115c2.432-2.157,4.31-5.181,5.978-6.688a8.553,8.553,0,0,1,1.5,1.679c1.13,1.835-1.313,3.626-4.331,5.321Z" transform="translate(-1761.645 -1854.752)" fill="#002822"/>
              </g>
              <g id="Group_109" data-name="Group 109" transform="translate(71.953 105.975)">
                <path id="Path_305" data-name="Path 305" d="M1728.536,1916.233l4.3,2.228a72.471,72.471,0,0,0,4.869-7.4,26.972,26.972,0,0,0,3.449-8.619c.877-6.322,7.57-16.711,6.876-18.482s-13.973-4.832-13.973-4.832-2.593,17.766-4.32,29.253C1729.23,1911.735,1728.805,1914.549,1728.536,1916.233Z" transform="translate(-1715.261 -1819.751)" fill="#f5c99d"/>
                <path id="Path_306" data-name="Path 306" d="M1716.2,1889.859a27.493,27.493,0,0,0,6.7,2.26,21.749,21.749,0,0,0,6.085.382c.36-.038.549-.07.549-.07a24.878,24.878,0,0,0,5.154-5.73,43.778,43.778,0,0,0,4.423-9l-20.268-1.974Z" transform="translate(-1699.654 -1818.181)" fill="#b8db70"/>
                <path id="Path_307" data-name="Path 307" d="M1735.02,1898.919a21.755,21.755,0,0,0,6.085.382l-2.276-8.851A32.7,32.7,0,0,0,1735.02,1898.919Z" transform="translate(-1711.775 -1824.981)" fill="#97c157"/>
                <path id="Path_308" data-name="Path 308" d="M1747.82,1941.35l4.3,2.228a72.461,72.461,0,0,0,4.869-7.4,17.04,17.04,0,0,1-7.968-2.679C1748.514,1936.852,1748.089,1939.666,1747.82,1941.35Z" transform="translate(-1734.545 -1844.869)" fill="#fff"/>
                <path id="Path_309" data-name="Path 309" d="M1699.57,1883.133a71.142,71.142,0,0,1,8.727,18.444c.775,2.539,3.411,5.7,6.08,8.506,2.588,2.728,5.2,5.117,6.171,6.3l4.38-2.109a58.583,58.583,0,0,0-3.815-8.426,23.978,23.978,0,0,0-2.8-4.051c-1.394-1.56-.936-21.279-2.324-22.581s-16.415,3.917-16.415,3.917Z" transform="translate(-1676.524 -1819.693)" fill="#f5c99d"/>
                <path id="Path_310" data-name="Path 310" d="M1711.15,1878.19l8.022,16.308c.048.005,5.978.183,10.19-2.174a10.84,10.84,0,0,0,3.5-2.954l-2.5-11.18Z" transform="translate(-1690.692 -1819.317)" fill="#b8db70"/>
                <path id="Path_311" data-name="Path 311" d="M1704.924,1774.072s2.728-5.741,9.319-2.324.172,16.437,3.632,19.654-1.254,5.321-.554,7.629-1.3,4.928-5.918,4.622-9.469-.059-11.557-4.094-1.609-12.918-.807-14.166,5.875-11.32,5.875-11.32Z" transform="translate(-1670.101 -1769.643)" fill="#e65924"/>
                <path id="Path_312" data-name="Path 312" d="M1723.812,1821.31l-.022.011Z" transform="translate(-1688.439 -1793.041)" fill="#ffb27d"/>
                <path id="Path_313" data-name="Path 313" d="M1723.83,1821.862l11.207-6.763c-.065-.027-.291-.36-1.125-2.787a13.565,13.565,0,0,1-.64-2.642c-.011-.07-.016-.14-.027-.21a7.438,7.438,0,0,1-.032-1.63l-2.453.888-4.541,1.646a5.576,5.576,0,0,1-.355,2.518,2.026,2.026,0,0,1-1.727,1.361Z" transform="translate(-1699.687 -1786.813)" fill="#f5c99d"/>
                <path id="Path_314" data-name="Path 314" d="M1726.88,1813.644a8.437,8.437,0,0,0,7.409-3.212l.124-.167-.145-.043c-.355-.108-1.324-.4-2.486-.742l-4.541,1.646a5.576,5.576,0,0,1-.355,2.518Z" transform="translate(-1700.703 -1787.576)" fill="#d8a982"/>
                <path id="Path_315" data-name="Path 315" d="M1726.516,1800.72s9.749,1.071,9.954-5.52,1.641-9.609-5.106-10.2-8.339,1.84-8.738,4.073c-1.243,6.968,1.146,11.353,3.9,11.649Z" transform="translate(-1700.555 -1776.228)" fill="#f5c99d"/>
                <path id="Path_316" data-name="Path 316" d="M1707.05,1772.25c.135-.307.231-.5.231-.5A1.591,1.591,0,0,0,1707.05,1772.25Z" transform="translate(-1662.902 -1770.146)" fill="#d35c2b"/>
                <path id="Path_317" data-name="Path 317" d="M1766.531,1802.464s-9.351-7.183-10.346-9.561-5.289-11.083-6.4-11.971c0,0-2.324-.3-2.658,1.307s2.211,11.159,3.987,14.043,10.276,12.66,13.069,14.075l2.351-7.893Z" transform="translate(-1743.706 -1774.377)" fill="#f5c99d"/>
                <path id="Path_318" data-name="Path 318" d="M1778.324,1770.921a5.152,5.152,0,0,0,.893,2.19c.522.619,1.356,1.851,1.883,2.653.339.495.554.861.554.861l2.652-1.3s.059-4.5-1.695-5.456a.3.3,0,0,0-.156-.059,11.093,11.093,0,0,0-2.066-.866,2.691,2.691,0,0,0-1.851-.032c-.339.183-.4,1.082-.215,2Z" transform="translate(-1778.219 -1768.768)" fill="#f5c99d"/>
                <path id="Path_319" data-name="Path 319" d="M1722.907,1783.281c3.449-.872,2.131,5.24,3,4.821.974-.468,2.653-.463,2.389.715a22.621,22.621,0,0,1-.845,2.335c-.2.737,0,2.19.8,1.9s8.264-8.813,3-15.452-20.978-2.55-16.033,4.4C1716.09,1783.216,1720.448,1783.9,1722.907,1783.281Z" transform="translate(-1692.625 -1771.293)" fill="#e65924"/>
                <path id="Path_320" data-name="Path 320" d="M1712.071,1852.009a16.788,16.788,0,0,0,7.543,1.48,52.445,52.445,0,0,0,13.193-2.771c2.287-.823,3.852-1.706,3.664-2.443-.269-1.065-2.227-9.238-4.041-16.8-1.657-6.914-3.185-13.322-3.185-13.322s-4.568,3.244-7.226,2.1-2.319-2.437-2.319-2.437a5.5,5.5,0,0,0-2.556-.447c-.818.258-3.131-1.055-3.131-1.055a8.262,8.262,0,0,0-2.658,6.225,11.4,11.4,0,0,0,.135,2.039l1.845,2.131s-3.917,12.353-1.259,25.3Z" transform="translate(-1694.314 -1790.731)" fill="#45391d"/>
                <path id="Path_321" data-name="Path 321" d="M1754.05,1952.861h12.843a16.153,16.153,0,0,0-.048-3.874,1.129,1.129,0,0,0-.317-.586,4.643,4.643,0,0,1-3.083-.005,6.256,6.256,0,0,1-2.271-1.415c-.134.129-2.787,2.658-4.014,2.658a2.9,2.9,0,0,0-3.1,3.223Z" transform="translate(-1747.898 -1851.096)" fill="#e65924"/>
                <path id="Path_322" data-name="Path 322" d="M1699.57,1933.13c2.588,2.728,5.2,5.117,6.171,6.295l4.38-2.109a58.577,58.577,0,0,0-3.815-8.426,9.374,9.374,0,0,1-6.736,4.234Z" transform="translate(-1661.718 -1842.739)" fill="#fff"/>
                <path id="Path_323" data-name="Path 323" d="M1697.879,1944.836s.161,2.787-.769,3.158-2.663,1.286-2.663,3.051h6.43s4.433-2.184,5.025-3.11-2.954-4.885-2.954-4.885-2.179,2.41-5.074,1.781Z" transform="translate(-1654.807 -1849.28)" fill="#e65924"/>
                <path id="Path_324" data-name="Path 324" d="M1733.409,1862s-2.814-.527-3.917.194-1.426,1.851-.635,2.308a5.124,5.124,0,0,0,5-.151Z" transform="translate(-1700.98 -1811.752)" fill="#f5c99d"/>
                <path id="Path_325" data-name="Path 325" d="M1705.046,1821.38s8.673,1.835,12.095,15.323a4.089,4.089,0,0,1-.926,3.74c-1.571,1.743-5.041,4.293-13.106,5.229-.882.1-1-2.13-1-2.13.086.177,5.477-3.481,7.775-5.45a1.266,1.266,0,0,0,.1-1.561,36.585,36.585,0,0,1-2.513-4.277c-.64-1.533-4.848-10.18-2.427-10.874Z" transform="translate(-1670.227 -1793.073)" fill="#f5c99d"/>
                <path id="Path_326" data-name="Path 326" d="M1708.4,1819.74s5.1.361,9.26,5.907c0,0-1.41,5.1-8.012,6.462,0,0-4.073-9.184-1.243-12.369Z" transform="translate(-1673.464 -1792.315)" fill="#45391d"/>
              </g>
              <path id="Path_327" data-name="Path 327" d="M1823.094,1571.849s9.1-1.109,13.677,7.36,4.207,20.736,8.641,26.525-.737,11.272-.737,11.272l-34.563,1.168a24,24,0,0,1,0-14.231c2.4-7.764-9.335-30.921,12.983-32.094Z" transform="translate(-1785.751 -1571.801)" fill="#070707"/>
              <path id="Path_328" data-name="Path 328" d="M1863.466,1717.781c.355,1.35,1.512,4.4,2.41,4.4.732,0,1-3.734,1.937-4.53a11.452,11.452,0,0,0,2.663-4.148c.366-1.205.71-1.458.71-1.458h0s10.928-19.977,11.783-25.094c.28-1.662,1-5,1.84-8.748.915-4.068,1.975-8.614,2.771-12.014a63.422,63.422,0,0,0-10.491-.979c-.64,4.143-1.216,8.372-1.706,12.047-.737,5.467-1.291,9.712-1.635,10.615-.952,2.5-3.567,15.942-6.037,22.926a8.29,8.29,0,0,1-1.964,3.083c-1.1.759-2.625,2.545-2.276,3.9Z" transform="translate(-1855.381 -1614.953)" fill="#f5c99d"/>
              <path id="Path_329" data-name="Path 329" d="M1796.431,1674.081c6.037-19.294-6.112-19.047-5.488-28.7s8.1-20.036,8.1-20.036.269-.027.737-.07a.653.653,0,0,0,.565-.431,15.549,15.549,0,0,0,.355-4.175c-.005-2.658-.21-5.477-.21-5.477l8.964-1.775.533-.108a23.334,23.334,0,0,0,1.759,9.792,3.014,3.014,0,0,0,2.292,1.657,34.591,34.591,0,0,1,7.6,1.8,4.189,4.189,0,0,1,2.254,1.663c2.464,5.413,4.918,19.079,6.65,28.823.963,5.434,1.695,9.647,2.082,10.54,1.071,2.491,4.337,16.206,7.123,22.98l-3.562,1.071s-11.756-19.5-12.821-24.578c-.35-1.652-1.205-4.961-2.2-8.662-.151-.56-.306-1.13-.462-1.706-1.759,4.778-2.663,6.989-2.61,9.05.07,2.938,2.061,5.579,6.225,14.914,2.3,5.16-34.041,13.139-27.881-6.569Z" transform="translate(-1768.541 -1590.977)" fill="#f5c99d"/>
              <path id="Path_330" data-name="Path 330" d="M1847.22,1615.276s.2,2.819.21,5.477c5.014-.14,7.667-4.719,8.754-7.253Z" transform="translate(-1815.268 -1591.065)" fill="#d8a982"/>
              <path id="Path_331" data-name="Path 331" d="M1848.611,1604.284s11.869.194,11.88-7.2,1.544-12.348-6.031-12.784-9.055,2.383-9.658,4.848S1845.528,1604.042,1848.611,1604.284Z" transform="translate(-1818.333 -1577.555)" fill="#f5c99d"/>
              <path id="Path_332" data-name="Path 332" d="M1845.07,1845.985l3.809.936a117.448,117.448,0,0,0,10.971-19.391c3.153-7.091,5.9-15.183,6.456-22.71a29.236,29.236,0,0,0-.759-9.722s1.065-7.156,2.523-16.711c1.614-10.621,3.713-24.2,5.353-34.176l-.99-.3-16.206-9.475s-7.446,16.975-5.542,42.494c.387,5.235-.726,13.338.264,19.294a89.856,89.856,0,0,1-.409,28.914,110.782,110.782,0,0,1-5.461,20.844Z" transform="translate(-1831.352 -1646.935)" fill="#f5c99d"/>
              <path id="Path_333" data-name="Path 333" d="M1846.176,1686.549c-2.222,6.144-3.368,8.652-3.314,10.976-7.091-10.981-19.9-12.633-19.9-12.633l24.319-2.782a22.809,22.809,0,0,1-1.108,4.439Z" transform="translate(-1793.311 -1622.76)" fill="#cb7d45"/>
              <path id="Path_334" data-name="Path 334" d="M1838.87,1583.742c1.829-2.222,3.217-1.738,3.992-1.071a8.424,8.424,0,0,1,10.675,1.711,14.139,14.139,0,0,0,4.622,8.345s-2.115,1.125-7.15.054c-5.978-1.27-7.624-8.006-7.861-8.883a9.31,9.31,0,0,0-2.588,3.449c-.592,1.883-.856,5.757-1.985,5.628,0,0-2.448-5.9.3-9.233Z" transform="translate(-1812.051 -1576.258)" fill="#070707"/>
              <path id="Path_335" data-name="Path 335" d="M1786,1755.8s1.082,2.556,2.211,3.266,2.733,2.432,2.432,3.8-.592,3.5-2.018,3.5-4.751-6.295-5.165-7.479-.769-1.426-.769-1.426Z" transform="translate(-1715.046 -1656.802)" fill="#f5c99d"/>
              <path id="Path_336" data-name="Path 336" d="M1798.645,1756.046c14.333,8.189,52.066-4.853,52.028-5.606-.2-4.008-3.826-28.139-8.087-51.167-2.615-14.161-9.588-19.45-8.474-20.343l.016-.016c4.3-3.051,2.437-8.286,2.157-10.158a14.287,14.287,0,0,0,10.454-1.528c-2.007-9.814-4.869-23.577-7.737-29.027a2.218,2.218,0,0,0-.7-.743.165.165,0,0,0,.027-.032c-2.685-1.958-8.167-2.556-8.167-2.556s-2.954,7.236-3.858,8.366c-5.849,7.307-16.356,4.008-14.925-.543a79.732,79.732,0,0,1,3.492-7.457,7.317,7.317,0,0,0-.742.07c-1.765.231-3.013.409-3.912.565a5.26,5.26,0,0,0-2.642.85c-1.55,1.544-3.562,5.391-3.718,12.246-.059,2.55-2.717,30.711,5.875,30.227.194-.011.027.447-.344,1.318-1.216,2.787-4.659,9.787-5.655,18.761-3.25,29.2-5.09,56.773-5.09,56.773Z" transform="translate(-1783.62 -1600.937)" fill="#fff"/>
              <path id="Path_337" data-name="Path 337" d="M1864.983,1612.842s-.226.909-2.5.742c0,0-1.9-.14-1.835-1.141A6.129,6.129,0,0,1,1864.983,1612.842Z" transform="translate(-1831.294 -1590.476)" fill="#fff"/>
              <path id="Path_338" data-name="Path 338" d="M1790.705,1761.53s.387,2.873,1.146,3.535.866,1.856,1.646,1.216S1790.705,1761.53,1790.705,1761.53Z" transform="translate(-1722.285 -1659.449)" fill="#f5c99d"/>
              <path id="Path_339" data-name="Path 339" d="M1900.707,1938.072c0,2.152-3.024,2.394-6.483,2.244s-2.486.651-7.285,1.06-6.569-1.06-6.849-1.727c-.253-.592,2.028-1.275,4.46-2.055.307-.1.613-.2.92-.3,2.739-.909,4.439-3.131,6.693-5.128,2.136-1.888,4.605-8.35,4.605-8.35l6.543-.764s-2.362,5.806-3.228,8.291a7.922,7.922,0,0,0,.237,4.514,8.557,8.557,0,0,1,.387,2.212Z" transform="translate(-1880.07 -1734.066)" fill="#f5c99d"/>
              <path id="Path_340" data-name="Path 340" d="M1899.053,1951.315c-3.46-.151-2.486.651-7.285,1.06s-6.569-1.06-6.849-1.727c-.253-.592,2.028-1.275,4.46-2.055l.032.043a13.528,13.528,0,0,0,7.14.759c3.2-.554,6.392-2.136,8.6-2.534a8.551,8.551,0,0,1,.387,2.211c0,2.152-3.024,2.394-6.483,2.244Z" transform="translate(-1884.899 -1745.066)" fill="#002822"/>
              <path id="Path_341" data-name="Path 341" d="M1798.645,1793.877c14.333,8.189,52.066-4.853,52.028-5.606-.2-4.008-3.826-28.14-8.087-51.167-2.615-14.161-9.588-19.45-8.474-20.343-.264.215-4.31,3.476-11.724,3.035a123,123,0,0,1-13-1.453c-1.216,2.787-4.659,9.787-5.655,18.761-3.25,29.2-5.09,56.774-5.09,56.774Z" transform="translate(-1783.62 -1638.767)" fill="#fd9c28"/>
              <path id="Path_342" data-name="Path 342" d="M1853.48,1716.73s-11.734,4.9-24.394.28l-.646,1.985s13.026,4.525,25.546-.624l-.506-1.636Z" transform="translate(-1802.966 -1638.753)" fill="#002822"/>
            </g>
            <g id="Group_112" data-name="Group 112" transform="translate(444.272 402.465)">
              <path id="Path_343" data-name="Path 343" d="M2767.28,1950.837h12.714a31.29,31.29,0,0,0-1.011-4.563,12.632,12.632,0,0,0-.721-1.829c-1.237-2.469-9.087-.9-9.087-.9s-.732.624-1.3,3.013a25.527,25.527,0,0,0-.592,4.283Z" transform="translate(-2745.586 -1721.767)" fill="#070707"/>
              <path id="Path_344" data-name="Path 344" d="M2697.579,1596.62s10.131,1.781,12.418,7.759,15.226,102.555,15.226,102.555-6.408,5.079-20.16,3.255-7.49-113.568-7.49-113.568Z" transform="translate(-2652.545 -1561.727)" fill="#97f9e3"/>
              <path id="Path_345" data-name="Path 345" d="M2671.157,1942.382c.032,1.727.253,3.368.877,4.014h25.142c-.317-.909-1.226-2.276-3.8-2.7-2.932-.474-7.506-1.889-10.174-4.708a7.565,7.565,0,0,1-1.969-3.567c-1.184-5.267-9.781,1.614-9.781,1.614a41.921,41.921,0,0,0-.291,5.348Z" transform="translate(-2611.048 -1717.326)" fill="#070707"/>
              <path id="Path_346" data-name="Path 346" d="M2736.326,1843.545c-2.809.9-8.178,3.632-11.589,2.346-2.206-.828-14.527-36.479-15.329-52.076a39.63,39.63,0,0,0-.63-4.643c-.732-4.025-2.007-9.556-3.476-15.657-3.944-16.351-9.281-36.807-9.163-43.344.177-10.147,30.238-2.125,30.238-2.125a108.764,108.764,0,0,1,2.48,20.375c.818,23.921,3.062,64.327,9.163,92.386A2.412,2.412,0,0,1,2736.326,1843.545Z" transform="translate(-2665.386 -1621.05)" fill="#b8db70"/>
              <path id="Path_347" data-name="Path 347" d="M2771.886,1731.5l-15.894,115.177s-6.978,1.684-12.407.334c0,0-4.654-61.255-4.267-76.067s-3.341-39.626.85-42.365,31.712,2.916,31.712,2.916Z" transform="translate(-2721.812 -1622.34)" fill="#b8db70"/>
              <path id="Path_348" data-name="Path 348" d="M2713.285,1600.549s16.7-10.8,28.677-5.278c1.91.882,4.089,3.336,5.644,5.052,4.331,4.772,12.789,80.56,12.789,80.56s-24.018,8.135-47.116-2.76v-77.579Z" transform="translate(-2696.935 -1560.378)" fill="#01483f"/>
              <path id="Path_349" data-name="Path 349" d="M2692,1596.115s16.9,6.93,19.2,12.251,9.733,38.018,9.733,41.848-12.956.856-15.043-5.326c-1.732-5.133-7.575-20.908-10.658-30.883l-3.228-17.9Z" transform="translate(-2646.02 -1561.491)" fill="#c9fce9"/>
              <g id="Group_111" data-name="Group 111" transform="translate(22.008)">
                <path id="Path_350" data-name="Path 350" d="M2760.288,1592.963a19,19,0,0,1-13.079-2.663,37.558,37.558,0,0,0,2.787-9.846c.016-.118.027-.231.038-.339a10.221,10.221,0,0,0,.049-2.254h9.539s2.609,1.194,2.609,2.018c0,.441,0,.861.011,1.264.022,1.1.065,2.055.118,2.878a26.244,26.244,0,0,0,.49,3.938S2764.016,1592.236,2760.288,1592.963Z" transform="translate(-2739.823 -1553.06)" fill="#f5c99d"/>
                <path id="Path_351" data-name="Path 351" d="M2761.008,1585.519a13.173,13.173,0,0,1-12.364-3.567c-.134-.145-.2-.231-.2-.231.075-.038.156-.07.242-.108,2.69-1.092,8.8-.22,12.208,1.028C2760.912,1583.738,2760.955,1584.7,2761.008,1585.519Z" transform="translate(-2738.472 -1554.564)" fill="#d8a982"/>
                <path id="Path_352" data-name="Path 352" d="M2743.478,1559.908c1.291,6.952,10.266,6.726,14.14,6.29,1.092-.124,1.775-.264,1.775-.264,1.232-.328,1.916-2.265,2.233-4.8.635-5.025-.167-12.4-1.017-14.28-1.275-2.835-3.68-5.908-12.713-3.691s-6.08,7.845-4.423,16.755Z" transform="translate(-2735.668 -1536.679)" fill="#f5c99d"/>
                <path id="Path_353" data-name="Path 353" d="M2764.609,1538.058a20.65,20.65,0,0,0-6.23-5.084c-5.106-2.766-11.648.086-11.675.1-7.376,3.244-9.308,8.888-5.391,17.685,4.138,9.3,8.076,8.253,8.076,8.253s-.834-.522-.759-3.417c0-.167.011-.3.016-.42a1.966,1.966,0,0,0-.613-1.587c-.915-.818-1.361-3.293-.6-3.982.926-.829,2.227.178,2.642.952a1.129,1.129,0,0,0,1.619.355c2.3-1.453.807-4.353,3-6.134s6.65-.285,9.938-1.7c4.309-1.6.9-3.734-.027-5.025Z" transform="translate(-2739.329 -1531.767)" fill="#070707"/>
              </g>
              <path id="Path_354" data-name="Path 354" d="M2777.866,1713.827c-1.453.371-2.895.683-4.326.92-1.264.215-2.523.377-3.788.484-7.145.624-14.328-.382-22.716-2.792q-2.833-.815-5.87-1.84c-.215-.07.554-22.264,1.437-45.146.091-2.362.183-4.735.274-7.091.038-1,.075-1.991.118-2.981.8-20.241,1.6-38.523,1.765-39.508.382-2.228.742-4.127,1.135-5.773,1.141-4.794,2.561-7.425,5.66-9.685.3-.231,2.776-1.479,4.961-2.561,1.808-.9,3.417-1.684,3.417-1.684h0c.721.355,1.582,2,2.486,4.315a156.246,156.246,0,0,1,4.7,15.678.112.112,0,0,0,.005.027h0c.8,3.153,1.377,5.606,1.544,6.311.28,1.189.646,3.492,1.082,6.612.586,4.245,1.291,10.007,2.034,16.55.075.672.151,1.351.231,2.039.086.786.178,1.576.264,2.378.027.258.059.516.086.775.285,2.588.576,5.262.861,7.979.237,2.244,3.643,3.869,3.879,6.155.135,1.34.42,13.72.786,17.669C2778.156,1685.478,2777.968,1712.5,2777.866,1713.827Z" transform="translate(-2729.55 -1561.519)" fill="#c9fce9"/>
              <path id="Path_355" data-name="Path 355" d="M2753.462,1647.96c-.01.048-.581,20.467,14.785,22.947s5.154,3.137,5.154,3.137-28.9-1.227-29.382-1.991S2753.462,1647.96,2753.462,1647.96Z" transform="translate(-2729.795 -1585.444)" fill="#97f9e3"/>
              <path id="Path_356" data-name="Path 356" d="M2790.232,1703.348s-.291.2-.839.56c-.011,0-.021.011-.027.016a72.117,72.117,0,0,1-19.429,8.307q-1.6.436-3.293.813c.092-2.362.183-4.735.274-7.091a30,30,0,0,1-3.809-.527c.043-.312.081-.624.124-.936,1.286-.527,2.566-1.038,3.8-1.523,1.007-.393,1.98-.769,2.9-1.114,4.159-1.582,7.242-2.652,7.242-2.652l12.315,3.9.737.237Z" transform="translate(-2753.582 -1609.115)" fill="#97f9e3"/>
              <path id="Path_357" data-name="Path 357" d="M2796.961,1655.4s-1.582.4-4.1.9h-.027a101.131,101.131,0,0,1-19.429,2.174c-1.028-.011-2.039-.054-3.018-.129a30.015,30.015,0,0,1-3.809-.527,11.806,11.806,0,0,1-6.08-2.873c-10.379-10.567,5.66-48.5,9.033-52.189,3.939-4.31,11.121-5.822,15.086-6.338.167-.021.323-.043.479-.059,1.394-.167,2.292-.2,2.341-.2h0s-.312,1-.834,2.7c-.2.656-.436,1.42-.694,2.265-2.437,7.979-7.14,23.663-9.211,32.508-.759,3.239-1.167,5.558-.979,6.252.807,3.018,9.195,4.573,14.505,5.262,2.217.285,3.9.42,4.272.452h.081l.307,1.259.737,3.024.721,2.97.619,2.55Z" transform="translate(-2757.05 -1561.514)" fill="#c9fce9"/>
              <path id="Path_358" data-name="Path 358" d="M2725.464,1700.641l-35.634-1.5,7.231-44.41,35.634,1.5Z" transform="translate(-2656.617 -1588.572)" fill="#fd9c28"/>
              <path id="Path_359" data-name="Path 359" d="M2749.807,1688s6.935-.484,7.285,1.135c.812,3.766-5.961,6.865-8.156,6.65S2748.214,1687.749,2749.807,1688Z" transform="translate(-2712.284 -1603.911)" fill="#ffb27d"/>
              <path id="Path_360" data-name="Path 360" d="M2699.252,1673.326s-6.634-2.077-7.35-.581c-1.663,3.481,4.213,8.06,6.4,8.361s2.562-7.651.953-7.775Z" transform="translate(-2625.122 -1596.644)" fill="#ffb27d"/>
              <path id="Path_361" data-name="Path 361" d="M2766.126,1592.015s-3.293.57-4.757,2.669c0,0,11.283,19.757,11.234,19.579s-3.685-19.827-6.478-22.253Z" transform="translate(-2735.017 -1559.597)" fill="#97f9e3"/>
              <path id="Path_362" data-name="Path 362" d="M2739.775,1592.515a8.282,8.282,0,0,1,3.218,3.293l1.3,16.534s-2.771-12.133-4.181-17.621a9.719,9.719,0,0,1-.339-2.211Z" transform="translate(-2695.081 -1559.828)" fill="#97f9e3"/>
              <path id="Path_363" data-name="Path 363" d="M2707.639,1654.717a1.615,1.615,0,0,1,1.9-1.087c1.619.145,10.734.592,10.734.592s1.759-.027,1.593,1.1l-14.231-.6Z" transform="translate(-2655.386 -1588.058)" fill="#bda24d"/>
            </g>
          </g>
        </g>
      </g>
    </g>
  </g>
</svg>
