<svg xmlns="http://www.w3.org/2000/svg" xmlns:xlink="http://www.w3.org/1999/xlink" width="549.496" height="189" viewBox="0 0 549.496 189">
  <defs>
    <linearGradient id="linear-gradient" y1="0.5" x2="1" y2="0.5" gradientUnits="objectBoundingBox">
      <stop offset="0" stop-color="#ddffb0"/>
      <stop offset="1" stop-color="#6ad32e"/>
    </linearGradient>
    <linearGradient id="linear-gradient-2" x1="0.5" y1="0.908" x2="0.5" y2="-0.399" gradientUnits="objectBoundingBox">
      <stop offset="0" stop-color="#fff" stop-opacity="0"/>
      <stop offset="1" stop-color="#fff"/>
    </linearGradient>
    <linearGradient id="linear-gradient-3" x1="0.504" y1="0.525" x2="0.504" y2="-0.783" xlink:href="#linear-gradient-2"/>
  </defs>
  <g id="Group_1" data-name="Group 1" transform="translate(-822 510)">
    <g id="Group_8" data-name="Group 8" transform="translate(337 -1167)">
      <circle id="Ellipse_1" data-name="Ellipse 1" cx="94.5" cy="94.5" r="94.5" transform="translate(485 657)" fill="#28a6a7"/>
      <g id="Group_35" data-name="Group 35" transform="translate(185.113 409.312)">
        <g id="Group_30" data-name="Group 30" transform="translate(333.523 281.324)">
          <path id="Path_63" data-name="Path 63" d="M455.251,319.646H416.929V281.324H371.844v38.322H333.523v45.085h38.321v38.321h45.085V364.731h38.322Z" transform="translate(-333.523 -281.324)" fill="url(#linear-gradient)"/>
          <path id="Path_64" data-name="Path 64" d="M356.228,330.658s45.019,1.956,45.019,19.456v13.192H356.132Z" transform="translate(-317.908 -247.251)" fill="url(#linear-gradient-2)"/>
          <path id="Path_65" data-name="Path 65" d="M401.239,317.335s-45.019-1.956-45.019-19.456V284.687h45.115Z" transform="translate(-317.847 -285.001)" fill="url(#linear-gradient-3)"/>
        </g>
        <path id="Path_66" data-name="Path 66" d="M376.886,331.395c1.723-1.621,9.884-7.3,9.985-13.889s-8.516-8.719-12.317-4.056c-3.8-4.663-12.418-2.534-12.316,4.056s8.262,12.266,9.985,13.889l.79.6a2.591,2.591,0,0,0,3.173-.041Z" transform="translate(19.832 20.459)" fill="#fff"/>
      </g>
      <path id="Path_68" data-name="Path 68" d="M52.271-74.508A32.413,32.413,0,0,0,40.38-72.381a25.776,25.776,0,0,0-9.346,6.188,28.383,28.383,0,0,0-6.091,10.022,39.362,39.362,0,0,0-2.191,13.632,40.833,40.833,0,0,0,2,13.374,25.759,25.759,0,0,0,5.736,9.636,23.864,23.864,0,0,0,9.12,5.833A35.443,35.443,0,0,0,51.82-11.73a66.47,66.47,0,0,0,9.99-.773A57.382,57.382,0,0,0,71.35-14.76v13.6A72.585,72.585,0,0,1,61.617.87a76.98,76.98,0,0,1-10.828.741A54.6,54.6,0,0,1,31.518-1.515a37.583,37.583,0,0,1-13.89-8.83A36.7,36.7,0,0,1,9.249-24.009a52.561,52.561,0,0,1-2.8-17.563,54.345,54.345,0,0,1,3-18.3,42.586,42.586,0,0,1,8.637-14.631A39.279,39.279,0,0,1,32.194-84.24,50.08,50.08,0,0,1,51.369-87.85a69.374,69.374,0,0,1,10.377.741,50.291,50.291,0,0,1,8.83,2.095v13.406a62.423,62.423,0,0,0-9.6-2.256A60.63,60.63,0,0,0,52.271-74.508ZM86.174,0V-93.328h15.275V0Zm33.064-62.455h15.275V0H119.238Zm-.387-30.873H134.9v16.564H118.852Zm46.857,39.574h.258a22.933,22.933,0,0,1,3.416-3.8,23.541,23.541,0,0,1,4.705-3.287,27.717,27.717,0,0,1,5.833-2.288,25.747,25.747,0,0,1,6.8-.87,27.943,27.943,0,0,1,6.606.773,19.79,19.79,0,0,1,5.833,2.417,17.851,17.851,0,0,1,4.673,4.254,19.99,19.99,0,0,1,3.19,6.22,20.533,20.533,0,0,1,.87,4.351q.226,2.353.226,5.446V0H192.844V-38.156a41.3,41.3,0,0,0-.193-4.318,12.687,12.687,0,0,0-.709-3.158,7.892,7.892,0,0,0-3.513-4.254,11.718,11.718,0,0,0-5.7-1.289,18.509,18.509,0,0,0-8.54,2.095,22.039,22.039,0,0,0-7.251,6.091V0H151.658V-62.455h12.633Zm59.555-8.7h15.275V0H225.264Zm-.387-30.873h16.049v16.564H224.877Zm58.717,71.607L267.48,0H249.949l24.686-31.84-23.2-30.615h17.982L283.98-41.83,298.8-62.455h18.047L293-31.9,317.5,0H299.643Z" transform="translate(717 797)" fill="#404346"/>
    </g>
  </g>
</svg>
